<svg xmlns="http://www.w3.org/2000/svg" viewBox="0 0 69.01 33.58"><defs><style>.cls-1{fill:#fff;}</style></defs><title>fmc-logo</title><g id="Layer_2" data-name="Layer 2"><g id="Layer_1-2" data-name="Layer 1"><path class="cls-1" d="M33.21,13.19,37,0a1.85,1.85,0,0,1,.16.26q4,7.5,8,15c.43.8.85,1.6,1.29,2.39a.35.35,0,0,1,0,.44l-5.66,7.32a2.13,2.13,0,0,1-.19.22c-.94-5.7-1.86-11.33-2.78-17h-.13q-2.24,8.06-4.46,16.13h-.08q-2-7.9-4-15.8h-.13l-2.56,16.8-.87-1c-1.85-2.22-3.69-4.44-5.55-6.66a.4.4,0,0,1-.06-.52L29,.29,29.17,0l3.92,13.19Z"/><path class="cls-1" d="M18.15,16.53,4,.15H27.61c-.06.12-.08.2-.12.27C27,1.28,26.49,2.13,26,3a.45.45,0,0,1-.46.26l-12.17,0c-.08,0-.16,0-.32,0l.23.24c.54.46,1.07.92,1.62,1.36a.94.94,0,0,0,.54.2c2,0,4,.05,6,.07l.38,0c-.05.11-.08.19-.12.26-.32.6-.66,1.2-1,1.8a.44.44,0,0,1-.43.27L17,7.73a2.86,2.86,0,0,0-.33,0c.09.13.14.22.2.29q1.75,2.1,3.52,4.19a.37.37,0,0,1,0,.52c-.72,1.16-1.42,2.32-2.13,3.48A2.79,2.79,0,0,1,18.15,16.53Z"/><path class="cls-1" d="M57.84,5.86,47.38,17.53c-3-5.84-6-11.62-9-17.45H62.28a2.08,2.08,0,0,1-.15.24c-.64.84-1.3,1.67-1.94,2.52a.64.64,0,0,1-.58.29l-9.92.11L45,3.29c-.36,0-.38,0-.22.36l3.68,7.56c.17.34.17.34.48.14l8.66-5.44.17-.09Z"/><path class="cls-1" d="M17.91,31c0,.1,0,.2,0,.3,0,.63,0,1.25,0,1.88,0,.28-.15.25-.33.25s-.37.05-.37-.26c0-1.1,0-2.21,0-3.32,0-.19.06-.26.26-.27a.67.67,0,0,1,.69.33c.43.67.89,1.31,1.35,1.95a1.63,1.63,0,0,0,.17.2l.07,0c0-.1,0-.2,0-.3,0-.63,0-1.25,0-1.88,0-.25.12-.29.32-.28s.38,0,.38.27q0,1.66,0,3.33c0,.18-.05.24-.24.26a.72.72,0,0,1-.76-.38c-.41-.66-.88-1.29-1.32-1.93A1.14,1.14,0,0,0,18,31Z"/><path class="cls-1" d="M27.55,31.28v.62c0,.42,0,.85,0,1.27,0,.21,0,.31-.29.31-.44,0-.43,0-.43-.45,0-1,0-2.06,0-3.09,0-.1.08-.3.12-.29a.61.61,0,0,1,.43.12c.32.39.61.81.91,1.22l.31.39.22-.26c.29-.44.59-.87.87-1.32a.32.32,0,0,1,.42-.16.42.42,0,0,1,.12.31c0,1.07,0,2.14,0,3.21,0,.29-.13.31-.37.32s-.34,0-.33-.32c0-.5,0-1,0-1.5,0-.09,0-.18,0-.27l-.09,0c-.13.17-.26.34-.37.51-.34.5-.48.63-.88,0-.17-.23-.36-.44-.54-.66Z"/><path class="cls-1" d="M10.31,31.36l-.25.32c-.11.15-.22.32-.34.47s-.31.19-.47,0-.37-.47-.55-.7a.57.57,0,0,0-.25-.19c0,.1,0,.2,0,.3,0,.55,0,1.09,0,1.64,0,.22-.07.29-.28.29-.45,0-.45,0-.45-.44,0-1,0-2.06,0-3.09,0-.11.07-.3.1-.3a.62.62,0,0,1,.44.12c.35.44.67.91,1,1.36.2.27.24.27.43,0s.55-.84.83-1.25a.44.44,0,0,1,.14-.18.53.53,0,0,1,.32-.06s.11.15.11.22c0,1.12,0,2.24,0,3.36,0,.3-.19.25-.37.25s-.34,0-.33-.26c0-.5,0-1,0-1.53,0-.1,0-.19,0-.29Z"/><path class="cls-1" d="M57.84,31.05v1.09c0,.36,0,.72,0,1.07s-.09.28-.29.26-.4.07-.39-.26c0-.94,0-1.88,0-2.83a3.25,3.25,0,0,1,0-.54.31.31,0,0,1,.19-.21.64.64,0,0,1,.73.3c.42.67.89,1.31,1.34,1.95l.22.27c0-.18,0-.28,0-.38,0-.62,0-1.25,0-1.87,0-.29.15-.28.35-.28s.35,0,.35.27c0,1.12,0,2.24,0,3.35,0,.18-.06.22-.23.24a.72.72,0,0,1-.75-.39c-.41-.65-.87-1.27-1.31-1.91a1.7,1.7,0,0,1-.09-.24Z"/><path class="cls-1" d="M34.58,31.54c0-.55,0-1.1,0-1.65,0-.2.06-.28.26-.27.5,0,1,0,1.48,0a1.49,1.49,0,0,1,1.37,1.28,2.6,2.6,0,0,1-.11,1.56,1.52,1.52,0,0,1-1.38,1c-.45,0-.9,0-1.36,0-.2,0-.26-.06-.26-.26C34.59,32.66,34.58,32.1,34.58,31.54Zm.69,0v.67c0,.74-.12.68.71.67A1,1,0,0,0,37,32a2.67,2.67,0,0,0,0-.63c0-.85-.37-1.19-1.21-1.19a1.76,1.76,0,0,1-.23,0c-.24,0-.32.09-.31.32S35.27,31.22,35.27,31.55Z"/><path class="cls-1" d="M52.23,31.52a2,2,0,0,1-.85,1.78,1.72,1.72,0,0,1-2.66-1.15,2.56,2.56,0,0,1,.2-1.74,1.71,1.71,0,0,1,1.89-.86,1.61,1.61,0,0,1,1.32,1.29C52.18,31.06,52.2,31.3,52.23,31.52Zm-.71,0a5.06,5.06,0,0,0-.22-.85.92.92,0,0,0-1.6-.14,1.86,1.86,0,0,0-.17,1.81.85.85,0,0,0,.89.64.94.94,0,0,0,.93-.65A8.21,8.21,0,0,0,51.52,31.51Z"/><path class="cls-1" d="M21.48,31.55c0-.56,0-1.11,0-1.67,0-.16,0-.26.22-.26.49,0,1,0,1.47,0a1.43,1.43,0,0,1,1.35,1.08,2.6,2.6,0,0,1-.05,1.76,1.49,1.49,0,0,1-1.32,1c-.48,0-1,0-1.45,0-.18,0-.22-.09-.22-.25,0-.56,0-1.12,0-1.68Zm.69,0c0,.36,0,.73,0,1.09a.33.33,0,0,0,.2.24c.93.16,1.43-.2,1.52-1.13s-.17-1.65-1.3-1.53a.48.48,0,0,1-.17,0c-.18,0-.26.07-.26.26C22.18,30.83,22.17,31.19,22.17,31.55Z"/><path class="cls-1" d="M56.18,31c0,.31,0,.62,0,.93a1.48,1.48,0,0,1-1.85,1.57A1.37,1.37,0,0,1,53,32c0-.71,0-1.41,0-2.11,0-.3.14-.3.36-.3s.39,0,.38.3c0,.72,0,1.43,0,2.14a.85.85,0,0,0,1.7.17,6.55,6.55,0,0,0,0-.89c0-.49,0-1,0-1.48,0-.28.18-.24.35-.24s.35,0,.34.25S56.18,30.64,56.18,31Z"/><path class="cls-1" d="M43.48,33.36l-.46.1c-.17,0-.26,0-.33-.19-.29-.71-.3-.72-1.08-.71s-.62-.13-.92.64c-.11.3-.29.35-.78.21l.68-1.77c.23-.6.47-1.19.7-1.8a.3.3,0,0,1,.35-.22c.16,0,.34,0,.43.18C42.53,31,43,32.14,43.48,33.36Zm-1.76-2.64h-.11L41.15,32H42s.11-.1.1-.13C42,31.47,41.86,31.09,41.72,30.72Z"/><path class="cls-1" d="M16.62,33.33l-.1.06c-.58.13-.6.14-.78-.42-.1-.32-.26-.46-.6-.42a4.07,4.07,0,0,1-.78,0,.33.33,0,0,0-.38.27.58.58,0,0,1-.05.14c-.2.57-.21.57-.89.48.13-.31.24-.61.36-.91.34-.88.69-1.76,1-2.64.09-.23.22-.27.44-.27a.36.36,0,0,1,.4.27c.4,1,.81,2.06,1.22,3.09Zm-1.74-2.59h-.12c-.14.37-.28.74-.41,1.12,0,0,.08.13.13.13.27,0,.53,0,.88,0Z"/><path class="cls-1" d="M33.06,31.8h-.79c-.22,0-.33.07-.32.3a5.61,5.61,0,0,1,0,.58c0,.2.09.27.28.27.39,0,.79,0,1.18,0s.45,0,.49.49l-.21,0H31.55c-.21,0-.29,0-.29-.27q0-1.66,0-3.33c0-.19.07-.25.25-.25h1.8c.29,0,.29.2.31.38s-.17.16-.29.16c-.36,0-.73,0-1.1,0-.19,0-.27.07-.28.27,0,.81,0,.81.76.83C33,31.27,33.07,31.32,33.06,31.8Z"/><path class="cls-1" d="M48,33.31c-1,.52-2.56.36-2.72-1.43a2.66,2.66,0,0,1,.22-1.44,1.77,1.77,0,0,1,2.37-.72.25.25,0,0,1,.07.22c0,.13,0,.33-.28.29s-.32-.07-.48-.09a.88.88,0,0,0-1,.56,2.18,2.18,0,0,0,0,1.77c.21.47.6.6,1.23.45C47.84,32.82,47.87,32.84,48,33.31Z"/><path class="cls-1" d="M61.26,31.54a4.76,4.76,0,0,1,.08-.66,1.72,1.72,0,0,1,2.49-1.18.26.26,0,0,1,.11.23c0,.14-.07.35-.31.3s-.28-.07-.42-.09a.91.91,0,0,0-1.09.64,2.21,2.21,0,0,0,0,1.64c.2.46.5.61,1.09.53l.25-.05c.28-.07.46,0,.49.31,0,.07-.1.18-.17.2-1.41.45-2.51-.1-2.53-1.73v-.14Z"/><path class="cls-1" d="M0,31.55V29.88c0-.19,0-.26.24-.26H2c.29,0,.29.19.31.38s-.18.16-.29.16q-.5,0-1,0c-.18,0-.27.07-.26.26v0c0,.78,0,.79.75.81.28,0,.28.18.3.36s-.16.19-.29.2-.33,0-.49,0-.27.08-.27.27c0,.37,0,.74,0,1.1s-.07.29-.27.26H.35c-.26,0-.36,0-.35-.33C0,32.61,0,32.08,0,31.55Z"/><path class="cls-1" d="M69,33.47H67c-.55,0-.48.05-.49-.47,0-1,0-2,0-3.06,0-.31.13-.32.36-.33s.35.05.35.32c0,.88,0,1.76,0,2.63,0,.38,0,.39.39.39h1C69,33,69,33,69,33.47Z"/><path class="cls-1" d="M4.59,31.52c0-.53,0-1.06,0-1.59,0-.32.16-.3.37-.32s.34.07.34.33c0,.88,0,1.75,0,2.63,0,.37,0,.38.37.38s.75,0,1.12,0,.29.18.31.36-.17.17-.28.17H4.87c-.21,0-.29-.06-.28-.28,0-.56,0-1.12,0-1.67Z"/><path class="cls-1" d="M2.9,29.67s0,0,.06,0c.57-.11.63-.05.63.51,0,1,0,2.06,0,3.09,0,.2-.09.26-.26.23s-.45.15-.46-.2c0-1.17,0-2.35,0-3.52C2.88,29.72,2.9,29.7,2.9,29.67Z"/><path class="cls-1" d="M64.81,31.53c0-.54,0-1.08,0-1.62,0-.27.13-.3.34-.29s.39,0,.38.27q0,1.66,0,3.33c0,.3-.19.25-.36.25s-.37,0-.36-.27c0-.55,0-1.11,0-1.67Z"/><path class="cls-1" d="M39.31,31.54c0,.56,0,1.12,0,1.67,0,.28-.15.27-.33.26s-.37.05-.36-.25c0-1.12,0-2.24,0-3.35,0-.28.17-.25.34-.25s.36,0,.35.25C39.3,30.42,39.3,31,39.31,31.54Z"/></g></g></svg>