<svg xmlns="http://www.w3.org/2000/svg" viewBox="0 0 663.5 533.9"><defs><style>.cls-1{fill:#fff;}</style></defs><g id="Layer_2" data-name="Layer 2"><g id="Layer_1-2" data-name="Layer 1"><path class="cls-1" d="M19.2,480v13h25v14.83h-25v24.75H3.79v-67.4H44.71V480Z"/><path class="cls-1" d="M121.25,532.56h-15.4V493.37L88.42,522H86.69l-17.43-28.6v39.19H53.85v-67.4H69.26L87.55,495.1l18.3-29.94h15.4Z"/><path class="cls-1" d="M129.91,498.86c0-19.84,14.73-35.05,35.05-35.05a33.62,33.62,0,0,1,28.88,15.6l-13.29,7.7c-3-5.2-8.76-8.28-15.59-8.28-11.94,0-19.64,8-19.64,20s7.7,20,19.64,20c6.83,0,12.71-3.08,15.59-8.28l13.29,7.71c-5.78,9.53-16.56,15.59-28.88,15.59C144.64,533.9,129.91,518.69,129.91,498.86Z"/><path class="cls-1" d="M221.27,465.16h16.18l11.65,47.18,13-47.18h12.51l13,47.18,11.65-47.18h16.18l-18.59,67.4H279.33l-11-39.77-11,39.77H239.86Z"/><path class="cls-1" d="M364.53,517.73v14.83H322.17v-67.4h41.88V480H337.57v11.17h24.07v14.63H337.57v11.94Z"/><path class="cls-1" d="M415.56,517.73v14.83H373.19v-67.4h41.88V480H388.6v11.17h24.07v14.63H388.6v11.94Z"/><path class="cls-1" d="M461.19,532.56l-21.57-31.2v31.2h-15.4v-67.4h15.4v29.27l20.61-29.27h17.52L455,498l23.68,34.57Z"/><path class="cls-1" d="M526.85,517.73v14.83H484.49v-67.4h41.88V480H499.89v11.17H524v14.63H499.89v11.94Z"/><path class="cls-1" d="M588.46,465.16v67.4H576.91l-26-36.59v36.59H535.51v-67.4h11.55l26,36.59V465.16Z"/><path class="cls-1" d="M659.71,498.86c0,19.06-14.15,33.7-32.74,33.7H600v-67.4h27C645.56,465.16,659.71,479.79,659.71,498.86Zm-14.83,0c0-11.56-7.32-18.87-17.91-18.87H615.42v37.74H627C637.56,517.73,644.88,510.41,644.88,498.86Z"/><polygon class="cls-1" points="663.5 0 460.37 352.39 444.05 380.66 421.65 419.57 407.38 444.29 393.11 419.57 370.62 380.66 354.31 352.39 331.83 313.51 308.34 354.3 292.63 381.56 270.41 420.14 256.49 444.25 242.22 419.49 217.7 377.07 203.43 352.34 51.44 89.08 35.57 61.6 13.35 23.13 0 0 27.82 0 41.16 23.13 63.36 61.6 79.22 89.08 217.29 328.19 231.62 352.96 256.08 395.39 278.36 356.79 294.06 329.55 317.56 288.75 331.83 264 346.12 288.75 368.59 327.63 384.91 355.94 407.34 394.81 429.78 355.94 446.09 327.63 634.95 0 663.5 0"/><polygon class="cls-1" points="591.14 0 577.8 23.13 555.58 61.6 539.7 89.08 423.94 289.61 409.67 314.38 393.96 287.12 370.42 246.33 350.91 213.01 482.17 58.07 379.45 213.01 408.24 262.36 508.29 89.08 524.17 61.6 546.39 23.13 117.11 23.13 139.33 61.6 155.21 89.08 255.26 262.36 284.05 213.01 181.33 58.07 312.6 213.01 293.08 246.33 269.54 287.12 253.84 314.38 239.56 289.61 123.8 89.08 107.92 61.6 85.7 23.13 72.36 0 591.14 0"/><path class="cls-1" d="M312.52,56.85C318.28,79.4,325,99.51,330.68,121.6l.38,0C337,99,344.67,79.92,350.67,56.85c.83,1.62,29.71,58.75,44.39,87.86,1.76,3.49,2.11,2.49-.65,5.89q-14.54,17.85-29,35.71c-.3.37-.63.71-1.22,1.37-2-14.78-3.95-29.16-5.91-43.53s-3.91-28.71-6.13-43.1q-10.73,41.9-21.46,83.79h-.5l-18.92-83h-.3c-4.27,28.21-8.55,56.42-12.88,85-2.87-3.28-5.5-6.28-8.11-9.3-8.72-10.07-17.41-20.16-26.17-30.18a2.52,2.52,0,0,1-.3-3.41C279.65,115.23,311.82,58.07,312.52,56.85Z"/><path class="cls-1" d="M258.2,140.84q-35.3-42.14-70.39-84l.09-.47c1.95.06,3.89.16,5.84.18q9.67.06,19.36.07,20.68,0,41.37,0c6.79,0,13.57.1,20.36.12l29.13.06c.66,0,1.32,0,2.26.07-.34.67-.58,1.2-.87,1.7-2.66,4.66-5.35,9.29-8,14A2.45,2.45,0,0,1,295,74c-9.21-.06-18.43-.15-27.64-.14-11.41,0-22.82.12-34.57.19a66.57,66.57,0,0,0,5.83,6.68A7.15,7.15,0,0,0,243,82.14c7.06.1,14.12,0,21.18-.07,4.45,0,8.91-.09,13.68-.14-1.13,2-2.12,3.83-3.12,5.61s-2.19,3.65-3.07,5.58c-.78,1.7-1.92,2.08-3.67,2.07-5,0-10,.17-15.05.3a17.13,17.13,0,0,0-1.76.23l6.11,7q6.48,7.44,13,14.85c.56.64.91,1.13.38,2-4,6.8-7.88,13.63-11.83,20.44A5.64,5.64,0,0,1,258.2,140.84Z"/><path class="cls-1" d="M355,56.64c1.06,0,1.8-.13,2.55-.13q18.21.16,36.41.34c8.39.06,16.77.08,25.16.13q20.61.14,41.21.3c3.92,0,7.84,0,11.75,0,1.08,0,2.16.16,3.57.27a11.88,11.88,0,0,1-1,1.78c-3.81,4.52-7.58,9.08-11.53,13.47a4.92,4.92,0,0,1-3.34,1.32c-6.34.09-12.69,0-19,0q-18-.08-35.92-.12c-6,0-12,0-18.27,0,.24.64.38,1.16.61,1.63q8.66,18.14,17.3,36.28c.61,1.28,1.14,1.46,2.36.68q21.86-14,43.76-27.91c.45-.29.92-.55,1.4-.84.82,1.15.14,1.88-.47,2.6q-9.45,11-18.91,21.92l-30.41,35.2c-2.41,2.79-2.38,2.78-4.05-.57q-21-42-42.05-84C355.81,58.33,355.52,57.67,355,56.64Z"/></g></g></svg>