<svg xmlns="http://www.w3.org/2000/svg" viewBox="0 0 707.08 473.47"><defs><style>.cls-1{fill:#fff;}</style></defs><g id="Layer_2" data-name="Layer 2"><g id="Layer_1-2" data-name="Layer 1"><polygon class="cls-1" points="707.08 0 490.61 375.54 473.22 405.66 449.35 447.13 434.14 473.47 418.93 447.13 394.97 405.66 377.59 375.54 353.63 334.11 328.59 377.57 311.85 406.62 288.17 447.74 273.34 473.43 258.13 447.04 232 401.84 216.79 375.49 54.82 94.94 37.91 65.64 14.23 24.64 0 0 29.65 0 43.86 24.64 67.52 65.64 84.43 94.94 231.57 349.75 246.83 376.14 272.9 421.36 296.64 380.23 313.38 351.2 338.42 307.72 353.63 281.34 368.85 307.72 392.8 349.15 410.19 379.32 434.1 420.74 458.01 379.32 475.39 349.15 676.66 0 707.08 0"/><polygon class="cls-1" points="629.97 0 615.75 24.64 592.07 65.64 575.15 94.94 451.79 308.64 436.58 335.03 419.84 305.98 394.75 262.51 373.96 227.01 513.84 61.88 404.38 227.01 435.05 279.59 541.68 94.94 558.6 65.64 582.28 24.64 124.8 24.64 148.49 65.64 165.41 94.94 272.03 279.59 302.7 227.01 193.24 61.88 333.13 227.01 312.33 262.51 287.24 305.98 270.51 335.03 255.3 308.64 131.93 94.94 115.01 65.64 91.33 24.64 77.12 0 629.97 0"/><path class="cls-1" d="M333.05,60.59c6.14,24,13.34,45.46,19.35,69l.4,0c6.28-24.14,14.51-44.44,20.9-69,.89,1.72,31.67,62.6,47.31,93.63,1.87,3.71,2.25,2.65-.69,6.27q-15.48,19-30.95,38.06c-.32.39-.67.75-1.3,1.46-2.14-15.75-4.21-31.07-6.29-46.39s-4.18-30.59-6.54-45.94Q363.81,152.33,352.37,197h-.53l-20.17-88.47h-.32c-4.55,30.06-9.11,60.13-13.72,90.57-3.06-3.5-5.86-6.69-8.65-9.91Q295,173.08,281.1,157a2.67,2.67,0,0,1-.32-3.63C298,122.8,332.3,61.89,333.05,60.59Z"/><path class="cls-1" d="M275.16,150.09q-37.62-44.9-75-89.52l.09-.5c2.08.07,4.15.18,6.23.19q10.31.08,20.63.08l44.09,0c7.23,0,14.46.1,21.69.13l31,.06c.71,0,1.41,0,2.42.07-.37.73-.63,1.29-.93,1.82-2.84,5-5.71,9.9-8.51,14.88a2.61,2.61,0,0,1-2.52,1.56c-9.82-.08-19.64-.17-29.46-.16-12.16,0-24.32.13-36.84.2a71,71,0,0,0,6.21,7.13A7.71,7.71,0,0,0,259,87.54c7.52.1,15.05,0,22.57-.08,4.75,0,9.5-.09,14.59-.14l-3.33,6c-1.1,2-2.33,3.89-3.27,5.94-.84,1.82-2.05,2.23-3.91,2.22-5.35,0-10.7.18-16,.31-.52,0-1,.14-1.87.25l6.5,7.51q6.92,7.92,13.84,15.82c.6.68,1,1.21.4,2.17-4.23,7.25-8.4,14.52-12.6,21.78A7.44,7.44,0,0,1,275.16,150.09Z"/><path class="cls-1" d="M378.37,60.36c1.12-.06,1.91-.14,2.71-.13,12.93.11,25.87.25,38.8.35,8.94.07,17.88.08,26.81.14l43.92.32c4.18,0,8.35,0,12.52.05,1.15,0,2.3.18,3.81.3a13.87,13.87,0,0,1-1.06,1.89c-4.07,4.82-8.09,9.68-12.29,14.36A5.35,5.35,0,0,1,490,79.05c-6.76.09-13.53,0-20.29-.06q-19.14-.08-38.27-.13c-6.4,0-12.8,0-19.47,0,.25.69.4,1.23.64,1.74q9.23,19.34,18.44,38.66c.65,1.36,1.22,1.55,2.52.72q23.28-14.92,46.63-29.74c.48-.31,1-.59,1.5-.89.87,1.22.14,2-.51,2.76q-10.07,11.7-20.15,23.37L428.66,153c-2.57,3-2.53,3-4.31-.61L379.53,62.84C379.19,62.16,378.88,61.45,378.37,60.36Z"/></g></g></svg>